<svg class="colors-fb696047-581c-4502-a2a2-4689abd032aa" version="1.1" xmlns="http://www.w3.org/2000/svg" style="display: block;" width="346" height="346" viewBox="-14.92 -32.00 2077.00 2077.00" preserveAspectRatio="none"><style>
.colors-fb696047-581c-4502-a2a2-4689abd032aa {
  --COLOR1: rgba(97, 163, 136, 1);
  --COLOR2: rgba(137, 187, 169, 1);
  --COLOR3: rgba(120, 189, 167, 1);
  --COLOR4: rgba(161, 216, 170, 1);
  --COLOR5: rgba(113, 176, 168, 1);
  --COLOR6: rgba(172, 234, 163, 1);
  --COLOR7: rgba(159, 225, 163, 1);
  --COLOR8: rgba(61, 141, 112, 1);
  --COLOR9: rgba(138, 187, 167, 1);
}
</style><g id="svg-group-fb696047-581c-4502-a2a2-4689abd032aa">
<defs>
	<linearGradient id="Gradient1" gradientUnits="userSpaceOnUse" x1="665.6" y1="1339.23" x2="1016.12" y2="1320.83">
		<stop class="stop0" offset="0" stop-opacity="1" stop-color="var(--COLOR1)"/>
		<stop class="stop1" offset="1" stop-opacity="1" stop-color="var(--COLOR2)"/>
	</linearGradient>
	<linearGradient id="Gradient2" gradientUnits="userSpaceOnUse" x1="1725.37" y1="1997.63" x2="1082.07" y2="58.0686">
		<stop class="stop0" offset="0" stop-opacity="1" stop-color="var(--COLOR3)"/>
		<stop class="stop1" offset="1" stop-opacity="1" stop-color="var(--COLOR4)"/>
	</linearGradient>
	<linearGradient id="Gradient3" gradientUnits="userSpaceOnUse" x1="833.06" y1="2051.13" x2="-324.202" y2="499.497">
		<stop class="stop0" offset="0" stop-opacity="1" stop-color="var(--COLOR5)"/>
		<stop class="stop1" offset="1" stop-opacity="1" stop-color="var(--COLOR6)"/>
	</linearGradient>
</defs>
<path transform="translate(0,0)" fill="url(#Gradient3)" d="M 0 284.557 C 4.55817 273.277 -0.833241 253.757 12.5548 245.828 C 15.1507 244.29 30.5788 243.357 34.2235 243.337 C 74.2548 243.11 113.599 245.846 153.659 245.832 L 243.682 245.797 C 258.708 245.794 279.528 245.151 293.896 246.362 C 298.989 249.965 305.939 255.908 306.583 262.358 C 308.366 280.216 307.508 301.852 307.49 319.801 L 307.678 436.366 L 307.757 787.835 L 307.887 903.016 C 307.908 921.986 307.324 944.077 308.047 962.764 C 322.107 980.888 335.439 982.806 357.287 982.873 C 374.751 982.926 392.353 982.646 409.817 982.673 L 559.013 982.865 C 580.399 982.867 617.295 981.703 636.998 983.43 C 652.184 993.543 659.917 1002.93 673.27 1014.4 C 696.096 1034.03 715.888 1055.65 737.583 1076.31 L 809.405 1145.98 C 823.546 1159.54 855.444 1189.55 866.892 1203.73 C 870.21 1342.63 864.927 1483.25 867.243 1622.31 L 869.856 1893.05 L 869.965 1968.02 C 870.019 1982.34 870.426 1996.67 869.651 2010.97 C 868.701 2028.53 859.521 2035.57 846.706 2045 L 816.334 2045 C 787.611 2026.36 793.389 2007.42 793.521 1976.58 L 793.775 1913.94 L 793.775 1740.71 C 793.787 1709.48 794.631 1673.55 793.429 1642.62 C 787.591 1633.33 777.192 1625.02 766.079 1623.35 C 750.961 1620.69 728.186 1633.33 724.498 1648.58 C 721.396 1661.4 722.271 1680.18 722.265 1693.63 L 722.256 1749.44 L 722.154 1955.44 C 722.115 1976.07 723.2 1999.11 721.691 2019.72 C 720.991 2029.27 708.784 2039.76 700.791 2045 L 668.151 2045 C 661.279 2039.45 654.733 2032.32 649.046 2025.58 C 647.762 2008.83 648.329 1986.4 648.329 1969.22 L 648.349 1876.27 L 648.464 1514.14 L 648.573 1399.11 C 648.595 1379.65 648.79 1360.13 648.479 1340.7 C 647.797 1330.22 643.088 1316.57 631.59 1313.95 C 621.444 1311.65 611.138 1313.23 600.845 1313.21 C 593.986 1313.2 587.216 1313.52 580.366 1313.45 L 397.229 1313.46 C 376.862 1313.51 357.308 1311.31 337.26 1311.19 C 326.062 1311.12 309.258 1320.43 308.418 1332.07 C 307.096 1350.38 307.763 1370.7 307.776 1389.09 L 307.86 1506.9 L 307.825 1908.72 L 307.901 1981.03 C 307.913 1993.32 308.789 2014.53 306.522 2025.92 C 303.107 2043.07 282.524 2040.98 275.039 2045 L 28.1454 2045 C 17.4956 2038.27 15.4667 2039.34 6.97006 2029.17 C 5.35308 2018.25 5.89857 2002.82 5.85796 1991.43 C 5.76984 1966.73 6.02324 1941.85 5.99275 1917.15 C 5.98336 1909.55 2.74983 1900.09 2.73703 1890.91 C 2.60504 1796.25 2.73935 1701.49 2.68111 1606.84 L 2.697 679.995 C 2.71689 596.641 3.96901 512.781 0.773365 429.56 C -0.323156 401.004 4.03307 365.347 0 337.845 L 0 284.557 z M 765.499 1570.66 C 787.542 1566.63 802.091 1545.43 797.914 1523.41 C 793.738 1501.4 772.434 1486.99 750.448 1491.32 C 728.675 1495.61 714.44 1516.66 718.577 1538.46 C 722.713 1560.27 743.669 1574.64 765.499 1570.66 z"/>
<path transform="translate(0,0)" fill="var(--COLOR7)" d="M 1365.21 563.421 C 1364.12 540.147 1364.71 513.146 1364.7 489.656 L 1364.65 363.183 L 1364.65 294.801 C 1364.65 282.312 1363.92 261.22 1366.22 249.883 C 1374.15 240.787 1399.61 243.106 1411.61 243.144 L 1468.4 243.374 C 1506.56 243.448 1538.03 242.992 1576.21 247.201 C 1677.83 258.468 1774.12 298.539 1853.72 362.695 C 1964.81 450.939 2031.79 588.868 2048 728.313 L 2048 829.534 C 2030.84 955.881 1984.09 1058.69 1893.99 1149.7 C 1916.23 1170.01 1963.11 1237.04 1978.27 1264.06 C 1976.92 1264.44 1975.4 1264.41 1975.12 1265.73 C 1970.6 1287.06 1961.99 1305.98 1951.92 1325.45 C 1914.46 1398.23 1858.71 1460.01 1790.15 1504.74 C 1768.33 1519.09 1744.89 1531.21 1722.97 1544.84 C 1723.3 1542.39 1724.23 1539.37 1724.48 1537.33 C 1729.93 1491.31 1716.6 1427 1688.35 1389.78 C 1664.09 1357.81 1620.12 1321.49 1580.37 1312.84 C 1566.4 1309.8 1540.39 1310.93 1525.05 1310.96 L 1440.15 1311.17 C 1426.68 1311.2 1398.9 1312.59 1386.95 1310.05 C 1366.32 1302.02 1367.11 1293 1365.55 1272.05 C 1364.21 1254.18 1364.92 1235.21 1364.91 1217.2 L 1364.88 1125.94 L 1364.89 1038.62 C 1364.89 1023.66 1364.31 1003.56 1365.44 989.082 C 1370.21 985.234 1374.14 981.946 1380.39 980.996 C 1393.49 979.006 1409.41 979.959 1422.83 980.036 L 1502.37 980.353 C 1565.95 980.287 1597.98 978.581 1649.7 935.584 C 1738.25 861.97 1751.22 741.485 1677.64 651.871 C 1657.48 627.304 1639.32 614.975 1612.18 599.647 C 1572.66 577.335 1537.43 575.031 1493.06 576.6 C 1456.39 576.29 1414.28 578.743 1377.68 576.383 C 1371.67 571.549 1369.77 569.306 1365.21 563.421 z"/>
<path transform="translate(0,0)" fill="var(--COLOR8)" d="M 1386.95 1310.05 C 1399.76 1308.92 1424.57 1310.12 1438.55 1309.91 C 1479.32 1309.32 1523.06 1310.68 1563.53 1309.79 C 1647.84 1307.94 1752.4 1261.52 1820.41 1213.41 C 1846.95 1194.62 1871.6 1173.29 1893.99 1149.7 C 1916.23 1170.01 1963.11 1237.04 1978.27 1264.06 C 1976.92 1264.44 1975.4 1264.41 1975.12 1265.73 C 1970.6 1287.06 1961.99 1305.98 1951.92 1325.45 C 1914.46 1398.23 1858.71 1460.01 1790.15 1504.74 C 1768.33 1519.09 1744.89 1531.21 1722.97 1544.84 C 1723.3 1542.39 1724.23 1539.37 1724.48 1537.33 C 1729.93 1491.31 1716.6 1427 1688.35 1389.78 C 1664.09 1357.81 1620.12 1321.49 1580.37 1312.84 C 1566.4 1309.8 1540.39 1310.93 1525.05 1310.96 L 1440.15 1311.17 C 1426.68 1311.2 1398.9 1312.59 1386.95 1310.05 z"/>
<path transform="translate(0,0)" fill="url(#Gradient2)" d="M 1224.64 193.857 C 1213.78 180.88 1203.79 180.194 1191.2 170.58 C 1174.71 157.92 1163.92 139.237 1161.2 118.632 C 1148.89 28.7811 1245.18 -31.9992 1317.52 24.9357 C 1364.79 62.1348 1369.43 132.236 1323.23 172.061 C 1314.32 179.748 1303.45 184.955 1296.28 194.439 L 1299.24 1693.59 C 1303.57 1699.18 1315.74 1712.49 1322.53 1712.69 C 1385.5 1714.57 1449.93 1713.41 1512.98 1713.52 C 1547.71 1713.58 1595.09 1702.51 1624.13 1683.86 C 1673.48 1652.16 1711.38 1603.1 1722.97 1544.84 C 1744.89 1531.21 1768.33 1519.09 1790.15 1504.74 C 1858.71 1460.01 1914.46 1398.23 1951.92 1325.45 C 1961.99 1305.98 1970.6 1287.06 1975.12 1265.73 C 1975.4 1264.41 1976.92 1264.44 1978.27 1264.06 C 2007.16 1313.39 2025.48 1364.44 2038.15 1420.2 C 2040.5 1430.56 2042.08 1457.97 2048 1464.95 L 2048 1578.69 C 2045.84 1582.84 2043.93 1590.55 2043.33 1595.27 C 2012.92 1834.41 1800.84 2022.49 1562.59 2038.19 C 1553.42 2038.8 1528.23 2038.39 1521.76 2045 L 1256.41 2045 C 1249.37 2040.23 1231.68 2034.73 1228.87 2028.03 C 1223.48 2015.23 1225.56 1984.22 1225.59 1970.28 L 1225.6 1895.47 L 1225.5 1639.68 L 1225.42 541.16 L 1223.09 282.625 C 1223.07 265.261 1221.52 207.403 1224.64 193.857 z M 1265.3 138.594 C 1279 135.133 1289.79 124.576 1293.55 110.95 C 1297.31 97.3241 1293.45 82.7295 1283.46 72.7323 C 1273.47 62.7352 1258.88 58.8771 1245.25 62.6292 C 1224.49 68.3454 1212.2 89.7089 1217.69 110.529 C 1223.19 131.35 1244.42 143.867 1265.3 138.594 z"/>
<path transform="translate(0,0)" fill="var(--COLOR9)" d="M 950.421 586.951 C 941.407 578.334 932.81 574.993 922.994 567.899 C 877.988 535.38 875.883 465.353 913.717 426.811 C 931.779 408.527 956.428 398.264 982.129 398.326 C 1070.31 398.666 1114.41 499.837 1050.51 561.05 C 1046.43 564.954 1042.34 568.123 1037.95 571.623 C 1032.56 575.928 1021.22 582.997 1021.11 590.685 C 1020.83 610.641 1020.99 630.6 1021.04 650.549 L 1021.05 754.032 L 1021.01 814.654 C 1021.01 817.309 1020.71 846.164 1021.97 848.653 C 1040.43 885.091 1082.76 915.243 1110.26 946.064 C 1122.21 959.452 1129.91 964.073 1140.74 977.044 C 1151.21 988.94 1153.93 996.757 1153.84 1012.46 C 1153.73 1033.3 1153.89 1054.23 1153.93 1075.07 L 1154.13 1267.07 L 1154.23 1762.65 L 1154.3 1923.11 C 1154.32 1951.73 1154.36 1980.36 1154.29 2008.99 C 1154.25 2027.26 1147.82 2034.55 1133.6 2045 L 1100.76 2045 C 1094.18 2039.85 1089.51 2035.44 1084.36 2028.73 C 1083.27 2017.11 1082.05 2005.37 1081.48 1993.71 C 1081.07 1985.36 1082.77 1976.1 1082.27 1967.82 C 1079.35 1919.34 1081.36 1870.56 1080.87 1822 C 1080.76 1810.5 1082.68 1798.76 1082.5 1787.33 C 1079.93 1591.7 1079.41 1396.05 1080.94 1200.41 C 1081.02 1186.17 1082.7 1172.14 1083.1 1157.95 C 1083.63 1139.57 1085.42 1033.57 1081.64 1024.08 C 1077.34 1013.25 1063.8 1002.51 1055.61 994.357 L 998.854 938.131 C 984.787 924.458 961.701 904.979 950.867 888.082 C 949.537 865.404 950.329 837.911 950.346 814.723 L 950.388 662.564 C 950.403 639.63 951.396 609.105 950.421 586.951 z M 990.301 532.617 C 1004.14 529.714 1015.34 519.573 1019.59 506.088 C 1023.85 492.604 1020.5 477.872 1010.84 467.551 C 1001.17 457.231 986.689 452.925 972.955 456.289 C 952.205 461.37 939.362 482.151 944.096 502.982 C 948.831 523.814 969.393 537.002 990.301 532.617 z"/>
<path transform="translate(0,0)" fill="url(#Gradient1)" d="M 964.106 2045 C 955.322 2039.14 943.813 2034.14 942.095 2023.86 C 937.609 1997.04 938.634 1968.87 938.625 1941.84 L 938.6 1833.18 L 938.439 1386.92 L 938.388 1241.26 C 938.388 1226.81 940.547 1154.33 934.191 1147.34 C 878.615 1086.28 812.677 1033.52 755.796 973.204 C 739.652 956.084 713.302 934.317 700.655 914.788 C 695.687 907.116 699.951 844.707 698.708 831.538 C 698.136 796.07 699.446 807.446 670.192 787.188 C 603.797 741.212 625.557 630.084 707.338 616.84 C 815.598 600.306 871.047 734.669 778.026 794.536 C 773.313 797.57 768.137 801.475 764.42 805.528 L 763.656 806.351 C 763.622 820.591 761.445 878.15 768.913 887.916 C 785.686 909.853 817.486 941.248 838.335 960.822 L 945.035 1061.65 C 962.301 1077.98 994.555 1103.71 1006.71 1123.69 C 1009.79 1128.74 1011.54 1171.64 1011.64 1180.84 C 1012 1215.16 1011.88 1250.42 1011.91 1284.93 L 1012.01 1482.92 L 1012.3 2007.77 C 1012.27 2025.78 1010.1 2033.84 994.522 2045 L 964.106 2045 z M 740.894 748.985 C 784.579 729.122 774.389 663.957 711.652 674.657 C 661.944 701.155 693.075 761.562 740.894 748.985 z"/>
</g></svg>